<!--?xml version="1.0" standalone="no"?-->              <svg id="sw-js-blob-svg" viewBox="0 0 100 100" xmlns="http://www.w3.org/2000/svg">                    <defs>                         <linearGradient id="sw-gradient" x1="0" x2="1" y1="1" y2="0">                            <stop id="stop1" stop-color="rgba(248, 117, 55, 1)" offset="0%"></stop>                            <stop id="stop2" stop-color="rgba(251, 168, 31, 1)" offset="100%"></stop>                        </linearGradient>                    </defs>                <path fill="url(#sw-gradient)" d="M20.2,-35.6C26.2,-31.4,31.3,-26.2,35.2,-20.1C39.1,-14,41.8,-7,42.1,0.2C42.4,7.4,40.4,14.8,37,21.8C33.7,28.7,28.9,35.3,22.5,37.8C16.1,40.3,8.1,38.7,0.1,38.5C-7.9,38.4,-15.8,39.6,-22.2,37.2C-28.6,34.7,-33.5,28.4,-37.6,21.6C-41.7,14.8,-45,7.4,-44.4,0.3C-43.8,-6.7,-39.3,-13.4,-33.9,-17.9C-28.4,-22.4,-22,-24.7,-16.2,-29.1C-10.4,-33.4,-5.2,-39.9,0.9,-41.5C7,-43.1,14.1,-39.8,20.2,-35.6Z" width="100%" height="100%" transform="translate(50 50)" stroke-width="0" style="transition: 0.3s;"></path>              </svg>